<svg width="71" height="11" viewBox="0 0 71 11" fill="none" xmlns="http://www.w3.org/2000/svg">
<path d="M14.8939 7.14813V1.46848H18.4159V2.20617H15.7508V3.93669H18.1635V4.6716H15.7508V7.14813H14.8939ZM20.9264 7.2341C20.5067 7.2341 20.1453 7.14443 19.8421 6.9651C19.5407 6.78391 19.3077 6.52969 19.1432 6.20245C18.9805 5.87335 18.8991 5.48787 18.8991 5.04599C18.8991 4.60967 18.9805 4.22511 19.1432 3.89232C19.3077 3.55952 19.537 3.29976 19.831 3.11303C20.1268 2.92629 20.4725 2.83293 20.8682 2.83293C21.1085 2.83293 21.3415 2.87268 21.567 2.95218C21.7926 3.03168 21.995 3.15647 22.1744 3.32657C22.3537 3.49666 22.4952 3.7176 22.5987 3.98938C22.7022 4.25931 22.754 4.58748 22.754 4.97389V5.26786H19.3678V4.64664H21.9414C21.9414 4.42848 21.897 4.23528 21.8083 4.06703C21.7196 3.89694 21.5948 3.7629 21.4339 3.66491C21.2749 3.56692 21.0882 3.51792 20.8737 3.51792C20.6408 3.51792 20.4374 3.57524 20.2636 3.68987C20.0917 3.80265 19.9585 3.95055 19.8642 4.13359C19.7718 4.31478 19.7256 4.51168 19.7256 4.7243V5.20962C19.7256 5.49434 19.7755 5.73654 19.8753 5.93621C19.977 6.13589 20.1185 6.28842 20.2996 6.3938C20.4808 6.49734 20.6925 6.54911 20.9347 6.54911C21.0919 6.54911 21.2352 6.52692 21.3646 6.48255C21.494 6.43633 21.6059 6.36792 21.7001 6.27733C21.7944 6.18673 21.8665 6.07488 21.9165 5.94176L22.7013 6.0832C22.6384 6.3143 22.5257 6.51675 22.363 6.69054C22.2021 6.86249 21.9997 6.99653 21.7556 7.09267C21.5134 7.18696 21.237 7.2341 20.9264 7.2341ZM23.674 7.14813V2.88839H24.4699V3.58171H24.5226C24.6114 3.34691 24.7565 3.16387 24.958 3.0326C25.1596 2.89949 25.4008 2.83293 25.6819 2.83293C25.9666 2.83293 26.2051 2.89949 26.3974 3.0326C26.5915 3.16572 26.7348 3.34875 26.8272 3.58171H26.8716C26.9733 3.3543 27.1351 3.17311 27.3569 3.03815C27.5788 2.90133 27.8432 2.83293 28.1501 2.83293C28.5365 2.83293 28.8517 2.95403 29.0958 3.19622C29.3417 3.43842 29.4646 3.80357 29.4646 4.29167V7.14813H28.6354V4.36932C28.6354 4.0809 28.5568 3.87198 28.3997 3.74256C28.2425 3.61314 28.0549 3.54843 27.8367 3.54843C27.5668 3.54843 27.3569 3.63163 27.2072 3.79802C27.0574 3.96257 26.9825 4.17426 26.9825 4.4331V7.14813H26.1561V4.31663C26.1561 4.08552 26.084 3.89971 25.9398 3.7592C25.7956 3.61869 25.6079 3.54843 25.3768 3.54843C25.2197 3.54843 25.0745 3.59003 24.9414 3.67323C24.8101 3.75458 24.7038 3.86828 24.6225 4.01434C24.543 4.1604 24.5032 4.32957 24.5032 4.52185V7.14813H23.674ZM30.576 7.14813V2.88839H31.4052V7.14813H30.576ZM30.9948 2.23113C30.8505 2.23113 30.7267 2.18306 30.6231 2.08692C30.5215 1.98893 30.4706 1.87245 30.4706 1.73749C30.4706 1.60067 30.5215 1.48419 30.6231 1.38805C30.7267 1.29007 30.8505 1.24107 30.9948 1.24107C31.139 1.24107 31.2619 1.29007 31.3636 1.38805C31.4671 1.48419 31.5189 1.60067 31.5189 1.73749C31.5189 1.87245 31.4671 1.98893 31.3636 2.08692C31.2619 2.18306 31.139 2.23113 30.9948 2.23113ZM32.5873 7.14813V1.46848H34.6673C35.0703 1.46848 35.404 1.53504 35.6684 1.66815C35.9328 1.79942 36.1306 1.97784 36.2619 2.20339C36.3932 2.42711 36.4588 2.67947 36.4588 2.9605C36.4588 3.19715 36.4153 3.39682 36.3284 3.55952C36.2415 3.72037 36.1251 3.84979 35.979 3.94778C35.8348 4.04392 35.6758 4.11418 35.502 4.15855V4.21401C35.6906 4.22326 35.8746 4.28427 36.0539 4.39705C36.2351 4.50798 36.3848 4.66606 36.5032 4.87128C36.6215 5.0765 36.6806 5.32609 36.6806 5.62006C36.6806 5.91033 36.6122 6.17102 36.4754 6.40212C36.3405 6.63138 36.1315 6.81349 35.8487 6.94846C35.5658 7.08157 35.2043 7.14813 34.7643 7.14813H32.5873ZM33.4442 6.41322H34.6811C35.0916 6.41322 35.3855 6.33372 35.563 6.17472C35.7405 6.01571 35.8293 5.81696 35.8293 5.57846C35.8293 5.39912 35.784 5.23458 35.6934 5.08482C35.6028 4.93506 35.4734 4.81581 35.3051 4.72707C35.1387 4.63832 34.9409 4.59395 34.7116 4.59395H33.4442V6.41322ZM33.4442 3.92559H34.5924C34.7847 3.92559 34.9575 3.88862 35.111 3.81466C35.2663 3.74071 35.3892 3.63717 35.4798 3.50406C35.5723 3.36909 35.6185 3.21009 35.6185 3.02706C35.6185 2.79225 35.5362 2.59535 35.3717 2.43635C35.2071 2.27735 34.9548 2.19785 34.6146 2.19785H33.4442V3.92559ZM38.4597 1.46848V7.14813H37.6305V1.46848H38.4597ZM40.8149 7.24242C40.545 7.24242 40.3009 7.1925 40.0828 7.09267C39.8646 6.99098 39.6917 6.844 39.5642 6.65172C39.4384 6.45944 39.3756 6.22371 39.3756 5.94453C39.3756 5.70418 39.4218 5.50636 39.5142 5.35105C39.6067 5.19575 39.7315 5.0728 39.8886 4.98221C40.0458 4.89162 40.2214 4.82321 40.4155 4.77699C40.6097 4.73077 40.8075 4.69564 41.009 4.6716C41.2642 4.64202 41.4712 4.61799 41.6302 4.5995C41.7892 4.57916 41.9048 4.54681 41.9769 4.50243C42.049 4.45806 42.0851 4.38596 42.0851 4.28612V4.26671C42.0851 4.02451 42.0166 3.83685 41.8798 3.70373C41.7449 3.57062 41.5433 3.50406 41.2753 3.50406C40.9961 3.50406 40.7761 3.56599 40.6152 3.68987C40.4562 3.81189 40.3462 3.94778 40.2852 4.09754L39.5059 3.92005C39.5984 3.66121 39.7333 3.45229 39.9108 3.29329C40.0902 3.13244 40.2963 3.01596 40.5293 2.94386C40.7622 2.8699 41.0072 2.83293 41.2642 2.83293C41.4343 2.83293 41.6145 2.85326 41.805 2.89394C41.9972 2.93276 42.1766 3.00487 42.343 3.11025C42.5112 3.21564 42.649 3.36632 42.7562 3.5623C42.8634 3.75643 42.917 4.00879 42.917 4.3194V7.14813H42.1072V6.56575H42.074C42.0203 6.67298 41.9399 6.77836 41.8327 6.8819C41.7255 6.98543 41.5877 7.07141 41.4195 7.13981C41.2512 7.20822 41.0497 7.24242 40.8149 7.24242ZM40.9952 6.57684C41.2244 6.57684 41.4204 6.53154 41.5831 6.44095C41.7476 6.35036 41.8724 6.23203 41.9575 6.08597C42.0444 5.93806 42.0878 5.77999 42.0878 5.61174V5.06263C42.0582 5.09222 42.0009 5.11995 41.9159 5.14583C41.8327 5.16987 41.7375 5.19113 41.6302 5.20962C41.523 5.22626 41.4185 5.24197 41.3169 5.25676C41.2152 5.26971 41.1301 5.2808 41.0617 5.29004C40.9009 5.31038 40.7539 5.34458 40.6208 5.39265C40.4895 5.44072 40.3841 5.51006 40.3046 5.60065C40.227 5.68939 40.1881 5.80772 40.1881 5.95563C40.1881 6.16085 40.2639 6.31615 40.4155 6.42154C40.5672 6.52507 40.7604 6.57684 40.9952 6.57684ZM46.8974 8.74553V6.48532H46.8474C46.7975 6.57591 46.7254 6.67945 46.6311 6.79593C46.5387 6.9124 46.4111 7.01409 46.2484 7.10099C46.0857 7.18788 45.875 7.23133 45.6161 7.23133C45.2722 7.23133 44.9653 7.14351 44.6954 6.96787C44.4273 6.79038 44.2165 6.53801 44.0631 6.21077C43.9115 5.88167 43.8357 5.48694 43.8357 5.02658C43.8357 4.56622 43.9124 4.17242 44.0659 3.84517C44.2212 3.51792 44.4338 3.26741 44.7037 3.09361C44.9736 2.91982 45.2796 2.83293 45.6217 2.83293C45.886 2.83293 46.0987 2.8773 46.2595 2.96604C46.4222 3.05294 46.5479 3.15463 46.6367 3.2711C46.7273 3.38758 46.7975 3.49019 46.8474 3.57894H46.9168V2.88839H47.7266V8.74553H46.8974ZM45.7992 6.52415C46.0377 6.52415 46.2392 6.46129 46.4037 6.33556C46.5701 6.20799 46.6958 6.03143 46.7809 5.80587C46.8678 5.58031 46.9112 5.31778 46.9112 5.01826C46.9112 4.72245 46.8687 4.46361 46.7837 4.24175C46.6986 4.01989 46.5738 3.84702 46.4093 3.72315C46.2447 3.59927 46.0414 3.53734 45.7992 3.53734C45.5496 3.53734 45.3416 3.60205 45.1752 3.73147C45.0088 3.86088 44.8831 4.03745 44.798 4.26116C44.7148 4.48487 44.6732 4.73724 44.6732 5.01826C44.6732 5.30298 44.7157 5.55905 44.8008 5.78646C44.8858 6.01387 45.0115 6.19413 45.1779 6.32724C45.3462 6.45851 45.5533 6.52415 45.7992 6.52415ZM50.8971 7.14813V6.52692L52.819 4.53571C53.0242 4.3194 53.1934 4.12989 53.3265 3.96719C53.4615 3.80265 53.5622 3.64642 53.6288 3.49851C53.6953 3.3506 53.7286 3.19345 53.7286 3.02706C53.7286 2.83847 53.6842 2.67577 53.5955 2.53896C53.5068 2.4003 53.3857 2.29399 53.2322 2.22003C53.0788 2.14423 52.9059 2.10633 52.7136 2.10633C52.5102 2.10633 52.3327 2.14793 52.1811 2.23113C52.0295 2.31433 51.9131 2.43173 51.8317 2.58333C51.7504 2.73494 51.7097 2.91243 51.7097 3.1158H50.8916C50.8916 2.77007 50.9711 2.46778 51.1301 2.20894C51.2891 1.9501 51.5072 1.7495 51.7846 1.60714C52.0619 1.46293 52.3771 1.39083 52.7302 1.39083C53.0871 1.39083 53.4014 1.46201 53.6732 1.60437C53.9468 1.74488 54.1603 1.93716 54.3138 2.18121C54.4672 2.42341 54.544 2.69704 54.544 3.0021C54.544 3.21286 54.5042 3.41901 54.4247 3.62053C54.3471 3.82206 54.2112 4.04669 54.017 4.29444C53.8229 4.54034 53.553 4.83892 53.2072 5.1902L52.0785 6.37162V6.41322H54.6355V7.14813H50.8971ZM57.6639 7.24242C57.2257 7.24057 56.8513 7.12502 56.5407 6.89576C56.2301 6.66651 55.9925 6.33279 55.828 5.89461C55.6634 5.45644 55.5812 4.92859 55.5812 4.31108C55.5812 3.69541 55.6634 3.16942 55.828 2.73309C55.9944 2.29676 56.2329 1.96397 56.5435 1.73471C56.8559 1.50546 57.2294 1.39083 57.6639 1.39083C58.0984 1.39083 58.4709 1.50638 58.7815 1.73749C59.0921 1.96674 59.3297 2.29953 59.4942 2.73586C59.6606 3.17034 59.7438 3.69541 59.7438 4.31108C59.7438 4.93044 59.6616 5.45921 59.497 5.89739C59.3325 6.33372 59.0949 6.66743 58.7843 6.89854C58.4737 7.1278 58.1002 7.24242 57.6639 7.24242ZM57.6639 6.50196C58.0485 6.50196 58.3489 6.3143 58.5652 5.93899C58.7834 5.56367 58.8924 5.02104 58.8924 4.31108C58.8924 3.83962 58.8425 3.4412 58.7427 3.1158C58.6447 2.78855 58.5033 2.54081 58.3184 2.37256C58.1353 2.20247 57.9172 2.11742 57.6639 2.11742C57.2812 2.11742 56.9807 2.30601 56.7626 2.68317C56.5444 3.06033 56.4344 3.60297 56.4326 4.31108C56.4326 4.78438 56.4816 5.18466 56.5795 5.5119C56.6794 5.8373 56.8208 6.08412 57.0039 6.25237C57.1869 6.41876 57.4069 6.50196 57.6639 6.50196ZM60.7277 7.14813V6.52692L62.6495 4.53571C62.8548 4.3194 63.0239 4.12989 63.157 3.96719C63.292 3.80265 63.3928 3.64642 63.4593 3.49851C63.5259 3.3506 63.5592 3.19345 63.5592 3.02706C63.5592 2.83847 63.5148 2.67577 63.426 2.53896C63.3373 2.4003 63.2162 2.29399 63.0627 2.22003C62.9093 2.14423 62.7364 2.10633 62.5441 2.10633C62.3408 2.10633 62.1633 2.14793 62.0117 2.23113C61.8601 2.31433 61.7436 2.43173 61.6622 2.58333C61.5809 2.73494 61.5402 2.91243 61.5402 3.1158H60.7221C60.7221 2.77007 60.8016 2.46778 60.9606 2.20894C61.1196 1.9501 61.3378 1.7495 61.6151 1.60714C61.8924 1.46293 62.2077 1.39083 62.5608 1.39083C62.9176 1.39083 63.2319 1.46201 63.5037 1.60437C63.7773 1.74488 63.9909 1.93716 64.1443 2.18121C64.2978 2.42341 64.3745 2.69704 64.3745 3.0021C64.3745 3.21286 64.3348 3.41901 64.2553 3.62053C64.1776 3.82206 64.0417 4.04669 63.8476 4.29444C63.6535 4.54034 63.3835 4.83892 63.0378 5.1902L61.9091 6.37162V6.41322H64.466V7.14813H60.7277ZM65.5171 7.14813V6.52692L67.439 4.53571C67.6442 4.3194 67.8134 4.12989 67.9465 3.96719C68.0814 3.80265 68.1822 3.64642 68.2488 3.49851C68.3153 3.3506 68.3486 3.19345 68.3486 3.02706C68.3486 2.83847 68.3042 2.67577 68.2155 2.53896C68.1267 2.4003 68.0056 2.29399 67.8522 2.22003C67.6987 2.14423 67.5259 2.10633 67.3336 2.10633C67.1302 2.10633 66.9527 2.14793 66.8011 2.23113C66.6495 2.31433 66.533 2.43173 66.4517 2.58333C66.3703 2.73494 66.3297 2.91243 66.3297 3.1158H65.5115C65.5115 2.77007 65.591 2.46778 65.75 2.20894C65.909 1.9501 66.1272 1.7495 66.4045 1.60714C66.6819 1.46293 66.9971 1.39083 67.3502 1.39083C67.707 1.39083 68.0214 1.46201 68.2931 1.60437C68.5668 1.74488 68.7803 1.93716 68.9338 2.18121C69.0872 2.42341 69.1639 2.69704 69.1639 3.0021C69.1639 3.21286 69.1242 3.41901 69.0447 3.62053C68.967 3.82206 68.8311 4.04669 68.637 4.29444C68.4429 4.54034 68.173 4.83892 67.8272 5.1902L66.6985 6.37162V6.41322H69.2555V7.14813H65.5171Z" fill="#F9F5FF"/>
<g clip-path="url(#clip0_101_103)">
<path d="M4.75961 4.85995C4.7813 4.71678 4.82902 4.59096 4.88976 4.48249C4.95051 4.37402 5.03728 4.28291 5.14574 4.2135C5.24987 4.14842 5.38003 4.11805 5.54056 4.11371C5.64035 4.11805 5.73146 4.1354 5.81389 4.17011C5.90066 4.20916 5.97876 4.26122 6.0395 4.3263C6.10024 4.39138 6.14797 4.46947 6.18701 4.55625C6.22606 4.64302 6.24342 4.73847 6.24775 4.83392H7.02437C7.01569 4.63 6.97664 4.44344 6.90289 4.27424C6.82913 4.10503 6.72934 3.95752 6.59918 3.83604C6.46902 3.71455 6.31283 3.6191 6.13061 3.54969C5.94839 3.48027 5.74881 3.4499 5.52754 3.4499C5.24553 3.4499 4.99823 3.49762 4.78998 3.59741C4.58172 3.6972 4.40818 3.82736 4.26934 3.99656C4.13051 4.16577 4.02638 4.36101 3.9613 4.58662C3.89622 4.81223 3.85717 5.04651 3.85717 5.29815V5.41529C3.85717 5.66694 3.89188 5.90122 3.95696 6.12683C4.02204 6.35244 4.12617 6.54768 4.265 6.71254C4.40384 6.87741 4.57738 7.01191 4.78564 7.10736C4.99389 7.20281 5.24119 7.25487 5.5232 7.25487C5.72712 7.25487 5.91802 7.22016 6.0959 7.15508C6.27379 7.09 6.42998 6.99889 6.56447 6.88175C6.69897 6.76461 6.80744 6.63011 6.88553 6.47392C6.96363 6.31773 7.01135 6.15286 7.01569 5.97498H6.23908C6.23474 6.06609 6.21304 6.14852 6.174 6.22662C6.13495 6.30471 6.08289 6.36979 6.01781 6.42619C5.95273 6.4826 5.87897 6.52598 5.7922 6.55635C5.70976 6.58672 5.62299 6.5954 5.53188 6.59974C5.37569 6.5954 5.24553 6.56503 5.14574 6.49995C5.03728 6.43053 4.95051 6.33942 4.88976 6.23096C4.82902 6.12249 4.7813 5.99233 4.75961 5.84916C4.73791 5.70598 4.7249 5.55847 4.7249 5.41529V5.29815C4.7249 5.1463 4.73791 5.00313 4.75961 4.85995V4.85995ZM5.59262 1.01593C3.1977 1.01593 1.254 2.95963 1.254 5.35455C1.254 7.74947 3.1977 9.69318 5.59262 9.69318C7.98754 9.69318 9.93125 7.74947 9.93125 5.35455C9.93125 2.95963 7.98754 1.01593 5.59262 1.01593ZM5.59262 8.82545C3.67929 8.82545 2.12172 7.26789 2.12172 5.35455C2.12172 3.44122 3.67929 1.88365 5.59262 1.88365C7.50595 1.88365 9.06352 3.44122 9.06352 5.35455C9.06352 7.26789 7.50595 8.82545 5.59262 8.82545Z" fill="#FAFBFF"/>
</g>
<defs>
<clipPath id="clip0_101_103">
<rect width="10.4127" height="10.4127" fill="white" transform="translate(0.386261 0.148193)"/>
</clipPath>
</defs>
</svg>
