<svg width="67" height="16" viewBox="0 0 67 16" fill="none" xmlns="http://www.w3.org/2000/svg">
<path d="M0.634201 12.3492V0.989936H7.6783V2.46531H2.34808V5.92635H7.17357V7.39619H2.34808V12.3492H0.634201ZM12.6993 12.5212C11.8599 12.5212 11.137 12.3418 10.5306 11.9832C9.92789 11.6208 9.46198 11.1124 9.13288 10.4579C8.80749 9.79969 8.64479 9.02872 8.64479 8.14497C8.64479 7.27231 8.80749 6.50319 9.13288 5.83761C9.46198 5.17202 9.92049 4.6525 10.5084 4.27903C11.1001 3.90557 11.7915 3.71883 12.5828 3.71883C13.0635 3.71883 13.5294 3.79833 13.9806 3.95733C14.4317 4.11633 14.8366 4.36593 15.1952 4.70612C15.5539 5.0463 15.8368 5.48818 16.0439 6.03174C16.2509 6.5716 16.3545 7.22794 16.3545 8.00076V8.58869H9.58215V7.34627H14.7293C14.7293 6.90994 14.6406 6.52353 14.4631 6.18704C14.2856 5.84685 14.036 5.57877 13.7143 5.38279C13.3963 5.18682 13.0229 5.08883 12.5939 5.08883C12.128 5.08883 11.7213 5.20346 11.3737 5.43271C11.0298 5.65827 10.7636 5.95409 10.575 6.32016C10.3901 6.68253 10.2977 7.07634 10.2977 7.50157V8.47221C10.2977 9.04166 10.3975 9.52606 10.5972 9.92541C10.8005 10.3248 11.0834 10.6298 11.4458 10.8406C11.8082 11.0477 12.2315 11.1512 12.7159 11.1512C13.0302 11.1512 13.3168 11.1068 13.5757 11.0181C13.8345 10.9256 14.0582 10.7888 14.2468 10.6076C14.4354 10.4264 14.5796 10.2027 14.6794 9.9365L16.2491 10.2194C16.1234 10.6816 15.8978 11.0865 15.5724 11.4341C15.2507 11.7779 14.8458 12.046 14.3577 12.2383C13.8733 12.4269 13.3205 12.5212 12.6993 12.5212ZM18.1945 12.3492V3.82976H19.7864V5.2164H19.8918C20.0693 4.74679 20.3595 4.38072 20.7626 4.11818C21.1656 3.85195 21.6482 3.71883 22.2102 3.71883C22.7797 3.71883 23.2567 3.85195 23.6412 4.11818C24.0295 4.38442 24.3161 4.75049 24.5009 5.2164H24.5897C24.7931 4.76158 25.1166 4.39921 25.5603 4.12928C26.0041 3.85565 26.5328 3.71883 27.1466 3.71883C27.9195 3.71883 28.5499 3.96103 29.038 4.44543C29.5298 4.92983 29.7757 5.66012 29.7757 6.63631V12.3492H28.1173V6.79161C28.1173 6.21477 27.9601 5.79693 27.6458 5.5381C27.3315 5.27926 26.9562 5.14984 26.5199 5.14984C25.98 5.14984 25.5603 5.31623 25.2608 5.64903C24.9613 5.97812 24.8116 6.40151 24.8116 6.91918V12.3492H23.1587V6.68623C23.1587 6.22402 23.0145 5.8524 22.7261 5.57138C22.4376 5.29035 22.0623 5.14984 21.6001 5.14984C21.2858 5.14984 20.9955 5.23304 20.7293 5.39943C20.4668 5.56213 20.2541 5.78954 20.0915 6.08166C19.9325 6.37377 19.8529 6.71211 19.8529 7.09667V12.3492H18.1945ZM31.9985 12.3492V3.82976H33.6569V12.3492H31.9985ZM32.836 2.51523C32.5476 2.51523 32.2998 2.41909 32.0928 2.22681C31.8894 2.03084 31.7877 1.79788 31.7877 1.52795C31.7877 1.25432 31.8894 1.02137 32.0928 0.829086C32.2998 0.633109 32.5476 0.53512 32.836 0.53512C33.1244 0.53512 33.3703 0.633109 33.5737 0.829086C33.7808 1.02137 33.8843 1.25432 33.8843 1.52795C33.8843 1.79788 33.7808 2.03084 33.5737 2.22681C33.3703 2.41909 33.1244 2.51523 32.836 2.51523ZM36.0211 12.3492V0.989936H40.181C40.9871 0.989936 41.6545 1.12305 42.1833 1.38929C42.7121 1.65182 43.1077 2.00865 43.3703 2.45977C43.6328 2.90719 43.7641 3.41192 43.7641 3.97397C43.7641 4.44728 43.6772 4.84663 43.5034 5.17202C43.3296 5.49372 43.0966 5.75256 42.8045 5.94854C42.5161 6.14082 42.1981 6.28133 41.8505 6.37008V6.48101C42.2277 6.4995 42.5956 6.62152 42.9543 6.84708C43.3166 7.06894 43.6162 7.38509 43.8528 7.79554C44.0895 8.20598 44.2078 8.70517 44.2078 9.2931C44.2078 9.87364 44.071 10.395 43.7973 10.8572C43.5274 11.3157 43.1096 11.68 42.5438 11.9499C41.9781 12.2161 41.2552 12.3492 40.3751 12.3492H36.0211ZM37.735 10.8794H40.2087C41.0296 10.8794 41.6176 10.7204 41.9725 10.4024C42.3275 10.0844 42.505 9.68691 42.505 9.2099C42.505 8.85123 42.4144 8.52213 42.2332 8.22262C42.052 7.92311 41.7932 7.68461 41.4567 7.50712C41.1239 7.32963 40.7283 7.24088 40.2698 7.24088H37.735V10.8794ZM37.735 5.90417H40.0312C40.4158 5.90417 40.7615 5.83021 41.0685 5.68231C41.3791 5.5344 41.625 5.32733 41.8061 5.06109C41.991 4.79116 42.0835 4.47316 42.0835 4.10709C42.0835 3.63748 41.9189 3.24368 41.5898 2.92568C41.2607 2.60768 40.756 2.44867 40.0756 2.44867H37.735V5.90417ZM47.7659 0.989936V12.3492H46.1075V0.989936H47.7659ZM52.4763 12.5378C51.9364 12.5378 51.4483 12.438 51.012 12.2383C50.5757 12.0349 50.2299 11.741 49.9748 11.3564C49.7234 10.9719 49.5976 10.5004 49.5976 9.94205C49.5976 9.46135 49.6901 9.06569 49.875 8.75509C50.0599 8.44448 50.3094 8.19858 50.6237 8.0174C50.9381 7.83621 51.2893 7.6994 51.6776 7.60695C52.0658 7.51451 52.4615 7.44426 52.8646 7.39619C53.3748 7.33702 53.789 7.28895 54.107 7.25198C54.425 7.2113 54.6561 7.14659 54.8003 7.05785C54.9445 6.9691 55.0166 6.82489 55.0166 6.62522V6.58639C55.0166 6.10199 54.8798 5.72668 54.6062 5.46044C54.3362 5.19421 53.9332 5.06109 53.397 5.06109C52.8387 5.06109 52.3986 5.18497 52.0769 5.43271C51.7589 5.67676 51.5389 5.94854 51.4169 6.24805L49.8583 5.89307C50.0432 5.3754 50.3131 4.95756 50.6681 4.63956C51.0268 4.31786 51.4391 4.0849 51.905 3.94069C52.3709 3.79279 52.8609 3.71883 53.3748 3.71883C53.715 3.71883 54.0755 3.75951 54.4564 3.84086C54.841 3.91851 55.1996 4.06272 55.5324 4.27349C55.8689 4.48425 56.1444 4.78562 56.3589 5.17757C56.5733 5.56583 56.6806 6.07056 56.6806 6.69178V12.3492H55.061V11.1845H54.9944C54.8872 11.3989 54.7263 11.6097 54.5119 11.8168C54.2974 12.0238 54.0219 12.1958 53.6854 12.3326C53.3489 12.4694 52.9459 12.5378 52.4763 12.5378ZM52.8368 11.2067C53.2953 11.2067 53.6873 11.1161 54.0127 10.9349C54.3418 10.7537 54.5914 10.517 54.7615 10.2249C54.9353 9.9291 55.0222 9.61295 55.0222 9.27646V8.17825C54.963 8.23741 54.8484 8.29288 54.6783 8.34464C54.5119 8.39271 54.3214 8.43524 54.107 8.47221C53.8925 8.50549 53.6836 8.53692 53.4802 8.56651C53.2768 8.59239 53.1067 8.61458 52.9699 8.63306C52.6482 8.67374 52.3543 8.74215 52.088 8.83829C51.8255 8.93443 51.6147 9.07309 51.4557 9.25428C51.3004 9.43176 51.2228 9.66842 51.2228 9.96423C51.2228 10.3747 51.3744 10.6853 51.6776 10.8961C51.9808 11.1031 52.3672 11.2067 52.8368 11.2067ZM64.6412 15.544V11.0236H64.5414C64.4416 11.2048 64.2973 11.4119 64.1088 11.6448C63.9239 11.8778 63.6687 12.0812 63.3433 12.255C63.0179 12.4287 62.5964 12.5156 62.0787 12.5156C61.391 12.5156 60.7771 12.34 60.2373 11.9887C59.7011 11.6337 59.2796 11.129 58.9727 10.4745C58.6695 9.81632 58.5179 9.02687 58.5179 8.10614C58.5179 7.18542 58.6713 6.39781 58.9782 5.74332C59.2888 5.08883 59.7141 4.58779 60.2539 4.24021C60.7938 3.89262 61.4058 3.71883 62.0898 3.71883C62.6186 3.71883 63.0438 3.80758 63.3655 3.98507C63.6909 4.15886 63.9424 4.36223 64.1199 4.59518C64.301 4.82814 64.4416 5.03336 64.5414 5.21085H64.6801V3.82976H66.2996V15.544H64.6412ZM62.4448 11.1013C62.9218 11.1013 63.3249 10.9756 63.6539 10.7241C63.9867 10.469 64.2382 10.1158 64.4083 9.66472C64.5821 9.2136 64.669 8.68853 64.669 8.0895C64.669 7.49787 64.5839 6.9802 64.4138 6.53647C64.2437 6.09275 63.9941 5.74702 63.665 5.49927C63.3359 5.25152 62.9292 5.12765 62.4448 5.12765C61.9456 5.12765 61.5296 5.25707 61.1968 5.51591C60.864 5.77475 60.6126 6.12788 60.4425 6.5753C60.2761 7.02272 60.1929 7.52745 60.1929 8.0895C60.1929 8.65895 60.278 9.17108 60.4481 9.62589C60.6181 10.0807 60.8696 10.4412 61.2024 10.7075C61.5389 10.97 61.953 11.1013 62.4448 11.1013Z" fill="#F9F5FF"/>
</svg>
